<svg width="99" height="99" viewBox="0 0 99 99" fill="none" xmlns="http://www.w3.org/2000/svg">
<path d="M30.234 39.1057V28.6777C30.234 28.2546 30.2412 28.248 30.63 28.4269C32.2197 29.1546 33.8096 29.8835 35.3998 30.6134C37.1835 31.4301 38.9677 32.2458 40.7524 33.0607C42.1349 33.6934 43.5171 34.3273 44.8992 34.9622C46.268 35.5879 47.6373 36.2122 49.007 36.8353C49.535 37.0735 49.535 37.0689 49.535 37.6405C49.535 41.1319 49.535 44.6235 49.535 48.1153C49.535 51.4567 49.5335 54.7983 49.5304 58.1401C49.5304 58.5671 49.5304 58.5684 49.1344 58.3928C46.3694 57.1635 43.6047 55.9339 40.8402 54.7041C37.9309 53.4118 35.0214 52.1202 32.1117 50.8292C31.6074 50.6055 31.1065 50.3738 30.5976 50.1626C30.3257 50.0498 30.2234 49.8716 30.2241 49.5792C30.232 46.332 30.2346 43.0848 30.232 39.8376L30.234 39.1057Z" fill="white"/>
<path d="M69.5039 39.1056C69.5039 42.5805 69.4993 46.0554 69.5105 49.5336C69.5105 49.8768 69.4003 50.0537 69.0828 50.1936C66.8468 51.1743 64.6186 52.1736 62.3878 53.1682L54.8526 56.517C53.4776 57.1286 52.1035 57.7416 50.7302 58.3558C50.6438 58.3941 50.558 58.435 50.4695 58.4673C50.3157 58.5234 50.2761 58.4977 50.2563 58.3294C50.2495 58.2511 50.2473 58.1724 50.2497 58.0938C50.2497 51.2381 50.2497 44.3827 50.2497 37.5275C50.2497 37.4721 50.2497 37.4173 50.2497 37.3619C50.2439 37.2747 50.2665 37.1879 50.3141 37.1147C50.3617 37.0414 50.4317 36.9855 50.5137 36.9553C50.9804 36.7448 51.4443 36.5283 51.9096 36.3151L55.6281 34.6143C57.2464 33.8738 58.8647 33.1324 60.483 32.3901L64.1982 30.684C65.8667 29.9184 67.5351 29.1534 69.2036 28.3892C69.4861 28.2572 69.5026 28.2723 69.5026 28.5872C69.5035 32.0931 69.5039 35.5992 69.5039 39.1056Z" fill="white"/>
<path d="M48.7417 60.0236C48.6546 59.9919 48.5668 59.9635 48.4777 59.9292C45.4998 58.7381 42.5297 57.5264 39.5677 56.2939C37.2304 55.3259 34.8944 54.3553 32.5598 53.382C31.5341 52.9543 30.5039 52.5379 29.4895 52.0851C28.4282 51.6106 27.8395 50.7836 27.7603 49.6088C27.7048 48.7897 27.7424 47.97 27.7127 47.1509C27.6725 46.0487 27.6976 44.9446 27.6606 43.8424C27.6243 42.7791 27.6533 41.7152 27.6164 40.6519C27.5695 39.3365 27.6085 38.0198 27.5662 36.7051C27.5266 35.4841 27.555 34.2631 27.524 33.0421C27.4771 31.1981 27.4982 29.354 27.4712 27.5107C27.4639 27.0308 27.4613 26.5497 27.4415 26.0699C27.4336 25.8851 27.493 25.7828 27.6626 25.7049C28.7522 25.2079 29.8406 24.7017 30.925 24.1988C31.8833 23.7561 32.8418 23.3133 33.8006 22.8702L38.5235 20.6922C39.7828 20.1118 41.0425 19.5321 42.3027 18.9531C43.8506 18.2438 45.3988 17.5367 46.9471 16.8319C47.4276 16.6121 47.9081 16.393 48.3866 16.1719C48.8651 15.9508 49.3581 15.8069 49.8901 15.8089C50.3488 15.8087 50.8023 15.9068 51.22 16.0966C52.7204 16.7764 54.2186 17.4604 55.7146 18.1486C57.5771 19.0017 59.4392 19.8558 61.3008 20.7107C62.5724 21.2915 63.8409 21.8749 65.1064 22.461L70.4293 24.9175C70.9731 25.169 71.513 25.4284 72.0595 25.6726C72.1338 25.6971 72.1973 25.7466 72.2393 25.8127C72.2812 25.8787 72.2991 25.9572 72.2898 26.0349C72.2713 26.9563 72.2581 27.8778 72.2502 28.7996C72.241 29.7613 72.2502 30.7229 72.2317 31.6838C72.202 33.3147 72.2133 34.9462 72.1789 36.5771C72.1532 37.7743 72.1789 38.9722 72.134 40.1688C72.0938 41.3271 72.1288 42.4861 72.0859 43.643C72.0496 44.6198 72.0799 45.5973 72.0397 46.5734C72.0014 47.5027 72.0179 48.4327 71.9961 49.3619C71.9803 50.0563 71.8159 50.7017 71.3671 51.2542C71.0655 51.6216 70.6775 51.9084 70.2379 52.0891C68.8589 52.6716 67.4789 53.2522 66.0977 53.8308C62.4994 55.3369 58.8962 56.8309 55.2882 58.3129C53.99 58.8409 52.6885 59.3689 51.3883 59.8929C51.291 59.9412 51.1851 59.9697 51.0767 59.9767C51.1914 59.8871 51.3183 59.8144 51.4536 59.7609C52.5301 59.2329 53.6059 58.7095 54.6876 58.1914C56.7336 57.2085 58.7796 56.2286 60.8256 55.2518C62.1483 54.6204 63.4722 53.9918 64.7975 53.3662C66.4215 52.5984 68.0469 51.833 69.6736 51.07C69.8469 50.9936 70.0093 50.8946 70.1567 50.7757C70.5441 50.4457 70.7091 50.0213 70.7144 49.5217C70.7223 48.7957 70.6834 48.0697 70.6735 47.3476C70.6662 46.7959 70.6735 46.2441 70.6563 45.693C70.6161 44.5426 70.6418 43.3916 70.6048 42.2425C70.5699 41.1786 70.5989 40.1147 70.5599 39.0521C70.5124 37.7519 70.552 36.4517 70.5118 35.1521C70.4695 33.813 70.5012 32.4732 70.4656 31.1341C70.4306 29.8187 70.4352 28.5026 70.4299 27.1873C70.4299 27.0295 70.3699 26.9483 70.2273 26.885C68.1532 25.9649 66.0801 25.0409 64.0081 24.113C62.5055 23.4407 61.004 22.7644 59.5036 22.0841C57.8224 21.3265 56.1414 20.5688 54.4606 19.8111C53.1894 19.2369 51.9193 18.6605 50.6504 18.0819C50.6002 18.0588 50.5494 18.0377 50.4999 18.0126C50.0907 17.8034 49.6848 17.8146 49.273 18.0126C48.877 18.2033 48.4711 18.3802 48.0691 18.5624C46.2462 19.3891 44.4233 20.2159 42.6004 21.0427C41.0863 21.7313 39.5714 22.417 38.0556 23.0999C36.1368 23.9618 34.2168 24.822 32.2958 25.6805C31.3685 26.0963 30.4418 26.5141 29.5112 26.9239C29.3561 26.9899 29.306 27.0883 29.3066 27.2506C29.3066 27.9918 29.3027 28.7323 29.2994 29.4735C29.2994 30.1434 29.3139 30.814 29.2895 31.4832C29.2393 32.8692 29.2829 34.2552 29.24 35.6412C29.203 36.8292 29.24 38.0212 29.1938 39.2098C29.1548 40.2968 29.1872 41.3845 29.1456 42.4709C29.106 43.5031 29.1397 44.5354 29.1001 45.5669C29.0578 46.6619 29.0763 47.7568 29.0545 48.8518C29.0506 49.0643 29.0195 49.2755 29.0248 49.4887C29.04 50.2021 29.3548 50.7275 30.0043 51.0337C31.3718 51.6805 32.7439 52.3181 34.1128 52.9616C35.09 53.4218 36.0659 53.8838 37.0405 54.3476C39.1252 55.3398 41.2104 56.3331 43.296 57.3275C44.7038 58.0013 46.1063 58.6844 47.5108 59.3636C47.8588 59.5312 48.2062 59.6997 48.5529 59.8691C48.6189 59.9035 48.6961 59.9279 48.7417 60.0236Z" fill="white"/>
<path d="M31.2114 27.4257C31.2675 27.3307 31.3652 27.3089 31.449 27.2713C33.2482 26.4524 35.0482 25.6345 36.8491 24.8174C38.1903 24.2084 39.5305 23.5975 40.8699 22.9846C42.5476 22.2203 44.2255 21.4569 45.9037 20.6944C47.0794 20.1589 48.2542 19.6217 49.4281 19.0827C49.4855 19.0569 49.5436 19.0325 49.5997 19.0035C49.6903 18.9549 49.7915 18.9294 49.8944 18.9294C49.9972 18.9294 50.0984 18.9549 50.1891 19.0035C50.6088 19.2015 51.0332 19.3922 51.4556 19.5849L57.156 22.1814L61.974 24.3712L67.8711 27.0449C68.0724 27.136 68.275 27.2238 68.4724 27.3208C68.5951 27.3808 68.5951 27.4323 68.4724 27.4937C68.2968 27.5828 68.116 27.6607 67.9371 27.7432C67.3497 28.0125 66.7603 28.2771 66.1769 28.5543C66.112 28.5892 66.0396 28.6078 65.9659 28.6085C65.8922 28.6092 65.8194 28.5919 65.7538 28.5583C64.6721 28.0626 63.5877 27.5749 62.504 27.0845C60.8892 26.3532 59.2744 25.6222 57.6596 24.8913C56.2393 24.248 54.819 23.6034 53.3986 22.9575C52.2797 22.4489 51.1619 21.9383 50.0452 21.4257C49.997 21.4006 49.9434 21.3875 49.8891 21.3875C49.8348 21.3875 49.7812 21.4006 49.733 21.4257C48.057 22.1939 46.3802 22.9599 44.7025 23.7238C42.8963 24.5461 41.089 25.3672 39.2806 26.1869L34.848 28.2019C34.5609 28.3339 34.2725 28.4593 33.99 28.5926C33.9376 28.6193 33.8796 28.6332 33.8207 28.6332C33.7619 28.6332 33.7039 28.6193 33.6514 28.5926C32.8858 28.2388 32.1189 27.8897 31.3527 27.5366C31.2932 27.519 31.2427 27.4793 31.2114 27.4257Z" fill="white"/>
<path d="M59.4732 70.7519C59.46 74.4393 56.5409 77.5281 52.6878 77.5321C48.8175 77.5361 45.8825 74.3905 45.8898 70.7341C45.8951 67.0493 48.873 63.9189 52.7538 63.9599C56.5435 63.9981 59.466 67.0229 59.4732 70.7519ZM52.6799 66.1398C50.2299 66.1082 48.0777 68.1674 48.0744 70.7414C48.0744 73.3279 50.2286 75.3541 52.6713 75.3614C55.1496 75.3653 57.2794 73.3088 57.2913 70.7651C57.3032 68.2215 55.1575 66.1035 52.6799 66.1379V66.1398Z" fill="white"/>
<path d="M70.2603 72.5096C70.2875 72.4124 70.2956 72.3109 70.2841 72.2106C70.2841 69.586 70.2841 66.9614 70.2841 64.3368C70.2841 63.9547 70.2841 63.954 70.6563 63.954C71.1685 63.954 71.6806 63.954 72.1935 63.954C72.4575 63.954 72.4773 63.9719 72.4773 64.2359C72.4773 65.4885 72.4773 66.7425 72.4773 67.9979C72.4773 71.2609 72.4773 74.5239 72.4773 77.787C72.4773 77.8866 72.501 77.9909 72.4482 78.0893C72.3585 78.1104 72.3215 78.0371 72.2773 77.9896C71.8166 77.4924 71.3575 76.9941 70.8999 76.4947C70.5039 76.0584 70.1079 75.6182 69.7119 75.182C68.7509 74.126 67.7893 73.0728 66.827 72.0225C66.2317 71.3718 65.635 70.7217 65.0371 70.0722C64.8028 69.8168 64.5751 69.5574 64.3395 69.3014C64.2391 69.1918 64.1349 69.0862 64.0233 68.9714C63.9448 69.0598 63.9712 69.1489 63.9712 69.2281C63.9712 69.8881 63.9712 70.5521 63.9712 71.214C63.9712 73.2006 63.9712 75.1868 63.9712 77.1725C63.9712 77.5428 63.9712 77.5434 63.6102 77.5441C63.0901 77.5441 62.57 77.5441 62.0493 77.5441C61.8169 77.5441 61.7965 77.519 61.7899 77.2854C61.7899 77.2306 61.7899 77.1752 61.7899 77.1197C61.7899 72.6586 61.7899 68.1976 61.7899 63.7369C61.7899 63.6234 61.7311 63.4505 61.8374 63.4069C61.9694 63.3554 62.0275 63.533 62.1073 63.6201C62.6353 64.1943 63.1594 64.7718 63.6861 65.348C64.5898 66.3366 65.4936 67.3251 66.3973 68.3133C67.2677 69.2677 68.1367 70.2238 69.0043 71.1817C69.3541 71.5663 69.7061 71.9502 70.0603 72.3334C70.1125 72.4068 70.181 72.4671 70.2603 72.5096Z" fill="white"/>
<path d="M75.2149 70.7573C75.2149 68.6216 75.2149 66.486 75.2149 64.3507C75.2149 63.9547 75.2149 63.9547 75.6043 63.9547C76.6445 63.9547 77.6847 63.9402 78.7248 63.9547C79.9788 63.9758 81.1807 64.2491 82.2723 64.8919C83.4801 65.6027 84.3018 66.6442 84.7869 67.9523C85.0889 68.7836 85.2469 69.6604 85.2542 70.5448C85.27 71.482 85.171 72.402 84.8694 73.2924C84.1676 75.3604 82.7616 76.6804 80.6513 77.2524C79.9341 77.4391 79.196 77.5334 78.4549 77.5329C77.4781 77.5428 76.5006 77.5329 75.5238 77.5329C75.4763 77.5329 75.4288 77.5329 75.3819 77.5329C75.3601 77.535 75.3381 77.5323 75.3174 77.5249C75.2968 77.5176 75.278 77.5058 75.2624 77.4903C75.2468 77.4749 75.2349 77.4562 75.2274 77.4356C75.2198 77.415 75.2169 77.393 75.2189 77.3712C75.2189 77.2926 75.2149 77.2141 75.2149 77.1349C75.2145 75.011 75.2145 72.8852 75.2149 70.7573ZM77.4015 70.7369V74.9681C77.4015 75.0308 77.4015 75.0942 77.4015 75.1569C77.4107 75.3245 77.4272 75.3456 77.5995 75.3489C77.8833 75.3542 78.1671 75.3489 78.4509 75.3489C78.9392 75.3591 79.4269 75.309 79.9029 75.1998C81.2949 74.8744 82.2921 74.0778 82.7561 72.7083C83.1926 71.4369 83.1949 70.0567 82.7627 68.7839C82.5073 67.9791 81.9781 67.2891 81.2671 66.8336C80.5669 66.3776 79.7815 66.1961 78.9618 66.1472C78.5658 66.1241 78.1744 66.1367 77.7803 66.134C77.3751 66.134 77.4002 66.1281 77.4002 66.503L77.4015 70.7369Z" fill="white"/>
<path d="M14.481 70.7216V64.3196C14.481 63.9573 14.481 63.9566 14.8487 63.9566C15.8175 63.9566 16.7864 63.946 17.7527 63.9566C18.4872 63.9672 19.2139 64.053 19.9115 64.3031C20.6712 64.575 21.2903 65.0212 21.6902 65.7399C21.8904 66.1078 22.016 66.5115 22.0598 66.9279C22.1865 67.9899 21.8763 68.9178 21.1873 69.727C21.0612 69.8755 21.0586 69.8821 21.2144 70.0002C21.7537 70.402 22.1908 70.9252 22.4901 71.5275C22.7576 72.0743 22.9037 72.6725 22.9185 73.2811C22.9409 73.9285 22.8525 74.5536 22.572 75.1436C22.242 75.8359 21.7265 76.354 21.0678 76.7276C20.3458 77.1394 19.5584 77.348 18.7374 77.4536C17.8899 77.5605 17.0399 77.5361 16.1898 77.5387C15.7172 77.5387 15.2444 77.5387 14.7714 77.5387C14.4923 77.5387 14.4791 77.5242 14.4791 77.2437C14.4804 75.0719 14.481 72.8978 14.481 70.7216ZM16.6689 73.7279C16.6689 74.2559 16.6689 74.7839 16.6689 75.3119C16.6689 75.5099 16.6993 75.5429 16.8801 75.5442C17.5573 75.5488 18.2351 75.5706 18.9044 75.4366C19.3782 75.3416 19.835 75.201 20.2395 74.9225C20.5557 74.7054 20.7946 74.4216 20.885 74.0487C21.0711 73.2745 20.9325 72.5623 20.4092 71.9459C20.1282 71.6244 19.7813 71.3671 19.3921 71.1915C19.3474 71.1678 19.2977 71.1551 19.2471 71.1544C19.1964 71.1537 19.1464 71.1651 19.101 71.1876C18.3944 71.4984 17.6598 71.7415 16.9072 71.9136C16.6782 71.967 16.6689 71.9796 16.6683 72.2158C16.667 72.7201 16.6683 73.2243 16.6689 73.7279ZM16.6689 67.8994C16.6689 68.4816 16.6689 69.0637 16.6689 69.6458C16.6689 69.9144 16.6927 69.9303 16.9593 69.8629C17.5538 69.7083 18.1281 69.4848 18.6707 69.197C19.0427 69.0072 19.3798 68.7554 19.6673 68.4525C19.8957 68.2096 20.0574 67.9344 20.091 67.6018C20.165 66.8692 19.9498 66.4138 19.2482 66.1577C19.122 66.1136 18.9933 66.077 18.8628 66.0481C18.2292 65.8977 17.5837 65.9056 16.9389 65.9109C16.6828 65.9109 16.6696 65.9241 16.6689 66.1749C16.667 66.751 16.6683 67.3252 16.6683 67.8994H16.6689Z" fill="white"/>
<path d="M25.1803 70.762V64.3541C25.1803 63.9541 25.1803 63.9541 25.5902 63.9541H32.9676C33.3636 63.9541 33.3636 63.9541 33.3636 64.3461C33.3636 64.7382 33.3636 65.15 33.3636 65.552C33.3636 65.9103 33.3636 65.911 33.0145 65.911H27.716C27.3675 65.911 27.3675 65.911 27.3675 66.2601V69.0981C27.3675 69.1536 27.3675 69.209 27.3675 69.2638C27.3788 69.4136 27.3992 69.4341 27.5556 69.4446C27.6263 69.4493 27.6975 69.4446 27.7682 69.4446H31.9308C32.3149 69.4446 32.3162 69.4446 32.3169 69.8222C32.3169 70.2322 32.3169 70.6421 32.3169 71.0517C32.3169 71.4359 32.3169 71.4378 31.94 71.4378H27.7074C27.3682 71.4378 27.3675 71.4378 27.3675 71.7725C27.3675 72.9165 27.3675 74.0605 27.3675 75.2045C27.3675 75.2705 27.3675 75.3305 27.3675 75.3939C27.3647 75.4138 27.3665 75.434 27.3727 75.4531C27.3788 75.4722 27.3893 75.4896 27.4032 75.5041C27.4172 75.5185 27.4342 75.5296 27.4531 75.5365C27.4719 75.5433 27.4921 75.5458 27.5121 75.5437C27.5906 75.5437 27.6692 75.5477 27.7484 75.5477H32.9736C33.3564 75.5477 33.3584 75.5477 33.359 75.9258C33.359 76.3753 33.359 76.8241 33.359 77.2736C33.359 77.5204 33.3359 77.5376 33.0838 77.5376H25.472C25.1935 77.5376 25.181 77.523 25.181 77.2155C25.181 75.1264 25.181 73.0377 25.181 70.9494L25.1803 70.762Z" fill="white"/>
<path d="M63.259 29.8736C63.0056 30.0287 62.7383 30.1251 62.4835 30.2452C61.9416 30.5006 61.3925 30.7402 60.8526 30.9983C60.7839 31.0345 60.7073 31.0534 60.6296 31.0534C60.5518 31.0534 60.4753 31.0345 60.4065 30.9983C58.1334 29.9621 55.8591 28.9281 53.5834 27.8963C52.4211 27.3683 51.2582 26.8403 50.0986 26.3123C50.0332 26.2789 49.9607 26.2618 49.8872 26.2625C49.8138 26.2632 49.7416 26.2816 49.6769 26.3162C47.2903 27.407 44.9022 28.4944 42.5126 29.5786C41.4724 30.0512 40.4303 30.5204 39.3941 31.0002C39.3183 31.0393 39.2342 31.0594 39.149 31.0586C39.0637 31.0578 38.98 31.0362 38.905 30.9956C38.1849 30.6557 37.4596 30.3297 36.7362 29.997C36.6594 29.9708 36.5882 29.9303 36.5264 29.8776C36.5726 29.7858 36.663 29.7674 36.7376 29.733C37.504 29.381 38.2712 29.0312 39.039 28.6836C40.172 28.1688 41.3054 27.654 42.4393 27.1392C43.967 26.4445 45.4944 25.7491 47.0217 25.053C47.8605 24.6708 48.7014 24.2927 49.5336 23.896C49.6439 23.8378 49.7667 23.8074 49.8914 23.8074C50.016 23.8074 50.1388 23.8378 50.2491 23.896C51.9941 24.7025 53.7471 25.4965 55.4948 26.2938C56.9793 26.9696 58.4639 27.6452 59.9484 28.3206C60.9908 28.7936 62.0312 29.2655 63.0696 29.7363C63.1316 29.766 63.2088 29.7726 63.259 29.8736Z" fill="white"/>
<path d="M39.5928 73.9458C39.5928 72.8667 39.5928 71.7869 39.5928 70.7078C39.596 70.5351 39.5396 70.3666 39.433 70.2306C37.9573 68.2361 36.4833 66.239 35.011 64.2392C34.9972 64.22 34.982 64.2022 34.9688 64.1824C34.9338 64.1309 34.8731 64.0795 34.8982 64.0161C34.9305 63.9343 35.0183 63.9554 35.0863 63.9554C35.7714 63.9554 36.4571 63.9554 37.1422 63.9554C37.3078 63.9554 37.3996 64.0379 37.4874 64.1593C38.128 65.0477 38.7704 65.9345 39.4146 66.8198C39.7842 67.3302 40.1538 67.8406 40.5234 68.351C40.6732 68.5562 40.6771 68.5562 40.8316 68.3437C41.4845 67.4448 42.1364 66.5452 42.7872 65.645C43.1475 65.1473 43.5132 64.655 43.8669 64.1514C43.9052 64.0879 43.9599 64.0359 44.0253 64.001C44.0908 63.9662 44.1644 63.9497 44.2385 63.9534C44.8926 63.9613 45.5466 63.9534 46.2 63.9534H46.2238C46.299 63.9626 46.3987 63.9283 46.4343 64.0194C46.462 64.0913 46.3894 64.1514 46.3485 64.2042C45.3559 65.5572 44.3628 66.9098 43.3693 68.2619C42.8888 68.9153 42.4116 69.572 41.9265 70.2221C41.8211 70.3594 41.7663 70.5289 41.7714 70.7019C41.7754 72.8449 41.7714 74.9879 41.7714 77.131C41.7714 77.587 41.7556 77.5395 41.353 77.5401C40.8567 77.5401 40.3603 77.5401 39.864 77.5401C39.6 77.5401 39.5842 77.5217 39.5842 77.2557C39.589 76.1522 39.5919 75.0489 39.5928 73.9458Z" fill="white"/>
<path d="M57.9163 32.3011C57.8886 32.3671 57.8233 32.3862 57.7672 32.4113C57.0299 32.7505 56.2894 33.0832 55.5562 33.431C55.4735 33.4733 55.3818 33.4947 55.2889 33.4935C55.1961 33.4922 55.105 33.4683 55.0235 33.4237C53.3986 32.6753 51.7684 31.9394 50.1435 31.1923C50.0637 31.1519 49.9753 31.1312 49.8859 31.132C49.7964 31.1328 49.7084 31.155 49.6294 31.1969C47.9899 31.9506 46.3465 32.6958 44.7071 33.4488C44.6383 33.4849 44.5617 33.5037 44.484 33.5037C44.4063 33.5037 44.3297 33.4849 44.2609 33.4488C43.5257 33.105 42.7865 32.7703 42.0486 32.4318C41.9793 32.3994 41.8994 32.379 41.8618 32.305C41.8889 32.2278 41.9569 32.2166 42.0123 32.1915L46.2706 30.2505C47.3675 29.7502 48.4658 29.2532 49.5594 28.7457C49.7831 28.642 49.9752 28.6269 50.2075 28.7351C51.4219 29.3007 52.6423 29.8518 53.8613 30.4075C55.1448 30.9923 56.4282 31.5766 57.7117 32.1605C57.787 32.1975 57.882 32.208 57.9163 32.3011Z" fill="white"/>
<path d="M68.7291 85.3453C68.215 85.3453 67.7219 85.1411 67.3584 84.7776C66.9949 84.4141 66.7906 83.921 66.7906 83.4069C66.7906 82.8928 66.9949 82.3998 67.3584 82.0363C67.7219 81.6727 68.215 81.4685 68.7291 81.4685C69.9976 81.4685 70.684 82.4974 70.6794 83.4214C70.6783 83.676 70.627 83.9279 70.5283 84.1626C70.4296 84.3972 70.2855 84.6101 70.1042 84.7889C69.923 84.9677 69.7082 85.1089 69.4722 85.2044C69.2362 85.2999 68.9836 85.3478 68.7291 85.3453ZM70.0115 83.4056C70.0122 83.0669 69.8783 82.7418 69.6393 82.5018C69.4003 82.2618 69.0757 82.1266 68.737 82.1259C68.3983 82.1252 68.0732 82.259 67.8332 82.4981C67.5932 82.7371 67.458 83.0616 67.4573 83.4003C67.4566 83.739 67.5904 84.0641 67.8294 84.3041C68.0684 84.5441 68.393 84.6794 68.7317 84.6801C69.0704 84.6808 69.3955 84.5469 69.6355 84.3079C69.8755 84.0689 70.0108 83.7443 70.0115 83.4056Z" fill="white"/>
<path d="M45.2364 85.3454C44.9798 85.3461 44.7256 85.2959 44.4886 85.1977C44.2515 85.0996 44.0363 84.9554 43.8553 84.7736C43.6743 84.5917 43.5311 84.3758 43.4341 84.1383C43.3371 83.9007 43.2881 83.6463 43.29 83.3898C43.2993 82.44 44.0213 81.4758 45.2245 81.4685C45.479 81.4677 45.7313 81.5171 45.9667 81.6138C46.2022 81.7105 46.4164 81.8526 46.5969 82.0321C46.7775 82.2115 46.9209 82.4248 47.019 82.6596C47.1172 82.8945 47.1681 83.1464 47.1689 83.401C47.1696 83.6556 47.1203 83.9078 47.0236 84.1432C46.9269 84.3787 46.7848 84.5929 46.6053 84.7734C46.4259 84.954 46.2126 85.0974 45.9777 85.1955C45.7428 85.2937 45.4909 85.3446 45.2364 85.3454ZM46.5095 83.4386C46.5194 82.7225 45.9663 82.1364 45.2714 82.1265C44.9331 82.118 44.6051 82.2436 44.3591 82.4759C44.113 82.7082 43.9688 83.0284 43.958 83.3667C43.9509 83.5383 43.9788 83.7097 44.0399 83.8702C44.1011 84.0308 44.1943 84.1772 44.3138 84.3007C44.4333 84.4241 44.5766 84.522 44.7351 84.5884C44.8936 84.6547 45.0639 84.6882 45.2357 84.6867C46.0475 84.6959 46.53 83.9976 46.5095 83.4386Z" fill="white"/>
<path d="M40.392 83.4042C40.392 82.8538 40.392 82.3038 40.392 81.7542C40.392 81.4803 40.4092 81.4612 40.689 81.4625C41.0111 81.4625 41.3345 81.4381 41.6539 81.4975C41.7312 81.512 41.809 81.5258 41.8843 81.5476C42.6182 81.7595 42.7198 82.5132 42.4308 82.9864C42.3245 83.16 42.3291 83.158 42.4677 83.3078C42.6212 83.4625 42.7302 83.6557 42.7831 83.8671C42.8361 84.0785 42.8311 84.3003 42.7687 84.509C42.7061 84.7484 42.5526 84.9539 42.341 85.0819C42.0713 85.2477 41.7625 85.3388 41.446 85.3459C41.182 85.3558 40.9108 85.3512 40.6435 85.3459C40.4131 85.3459 40.3933 85.3228 40.392 85.0819C40.392 84.5216 40.392 83.9626 40.392 83.4042ZM41.0369 84.2464C41.0369 84.3638 41.0369 84.4813 41.0369 84.5995C41.0369 84.6899 41.0725 84.7493 41.1735 84.7532C41.4326 84.77 41.692 84.7268 41.9318 84.6272C41.9941 84.6021 42.0496 84.5627 42.094 84.5123C42.1383 84.4619 42.1703 84.4018 42.1872 84.3368C42.2223 84.1943 42.2089 84.0443 42.1491 83.9103C42.0893 83.7763 41.9866 83.666 41.8572 83.5969C41.8275 83.5796 41.7944 83.5691 41.7601 83.5662C41.7258 83.5634 41.6914 83.5682 41.6592 83.5804C41.5048 83.6372 41.349 83.6913 41.1906 83.7362C41.1439 83.7443 41.1021 83.7699 41.0736 83.8078C41.0452 83.8457 41.0323 83.893 41.0375 83.9401C41.0402 84.0424 41.0388 84.1441 41.0388 84.2464H41.0369ZM41.0369 82.6313C41.0369 82.733 41.0369 82.8353 41.0369 82.9376C41.0421 83.1356 41.0698 83.156 41.2632 83.0907C41.4271 83.0352 41.5825 82.9575 41.7252 82.8597C41.7908 82.8162 41.8473 82.7604 41.8915 82.6954C42.0506 82.4518 41.9661 82.207 41.6935 82.1179C41.5252 82.0624 41.3517 82.0717 41.1794 82.0769C41.1594 82.0754 41.1394 82.0784 41.1207 82.0857C41.1021 82.093 41.0854 82.1045 41.0718 82.1193C41.0583 82.134 41.0483 82.1517 41.0426 82.1709C41.0368 82.1901 41.0356 82.2103 41.0388 82.2301C41.0395 82.3641 41.0401 82.5 41.0401 82.632L41.0369 82.6313Z" fill="white"/>
<path d="M62.0539 83.3996C62.0539 82.8406 62.0539 82.2816 62.0539 81.7226C62.0539 81.4869 62.077 81.4586 62.3093 81.4586C62.6551 81.4586 63.001 81.4388 63.3468 81.4876C64.2523 81.6196 64.8806 82.3053 64.9123 83.2214C64.9281 83.4419 64.9172 83.6635 64.88 83.8814C64.6985 84.7605 64.0504 85.311 63.1521 85.3407C62.8769 85.3493 62.601 85.3446 62.3251 85.3407C62.073 85.3407 62.0545 85.3215 62.0539 85.0727C62.0519 84.5177 62.0539 83.9586 62.0539 83.3996ZM62.6967 83.4201V83.9619C62.6967 84.1428 62.6934 84.3236 62.6967 84.5045C62.7 84.6853 62.7251 84.7157 62.9039 84.7025C63.0764 84.6947 63.2479 84.6726 63.4168 84.6365C63.5953 84.6005 63.7606 84.5164 63.8947 84.3931C64.0289 84.2699 64.1268 84.1124 64.1777 83.9375C64.2646 83.6757 64.2872 83.3968 64.2437 83.1244C64.1639 82.6096 63.8774 82.2869 63.3725 82.1641C63.2265 82.1323 63.077 82.1195 62.9277 82.1258C62.7211 82.1291 62.702 82.1469 62.7 82.3588C62.6947 82.7126 62.7 83.0663 62.7 83.4201H62.6967Z" fill="white"/>
<path d="M35.112 83.4346C35.112 83.9777 35.112 84.5216 35.112 85.0648C35.112 85.3288 35.0922 85.342 34.8269 85.3453C34.4434 85.3499 34.4434 85.3499 34.4434 84.975C34.4434 84.6285 34.4434 84.282 34.4434 83.9355C34.4434 83.7085 34.4289 83.6966 34.2005 83.6946C33.8706 83.6946 33.5405 83.6946 33.2106 83.6946C33.0125 83.6946 32.9921 83.719 32.9894 83.9137C32.9855 84.2761 32.9894 84.6397 32.9894 85.0007C32.9894 85.0634 32.9895 85.1268 32.9842 85.1895C32.9857 85.2093 32.983 85.2292 32.9763 85.2478C32.9695 85.2665 32.9589 85.2835 32.9452 85.2978C32.9314 85.3121 32.9147 85.3233 32.8963 85.3307C32.8779 85.338 32.8581 85.3415 32.8383 85.3406C32.8225 85.3406 32.8066 85.3406 32.7908 85.3406C32.2813 85.3466 32.3288 85.3611 32.3248 84.911C32.3248 83.8796 32.3248 82.848 32.3248 81.8162C32.3248 81.4671 32.3453 81.4493 32.7037 81.4565C32.9598 81.4612 32.9868 81.4856 32.9888 81.7443C32.9921 82.1139 32.9888 82.4842 32.9888 82.8544C32.9888 83.0782 33.0106 83.0973 33.233 83.0993C33.563 83.0993 33.893 83.1032 34.223 83.0993C34.421 83.0993 34.4395 83.0788 34.4415 82.8815C34.4454 82.5033 34.4415 82.1251 34.4415 81.7469C34.4415 81.4763 34.4579 81.4618 34.716 81.4559C35.0995 81.448 35.112 81.4559 35.112 81.8519C35.112 82.3794 35.112 82.907 35.112 83.4346Z" fill="white"/>
<path d="M48.869 83.9137C48.6261 84.2681 48.3925 84.6126 48.1556 84.9552C47.8414 85.4099 47.9754 85.3386 47.4203 85.3439C47.3273 85.3439 47.2309 85.3644 47.1339 85.3136C47.1279 85.1928 47.2203 85.1156 47.2791 85.0298C47.6177 84.5268 47.9628 84.0279 48.3041 83.5263C48.473 83.2781 48.473 83.2761 48.3041 83.0286C48.0123 82.5983 47.718 82.1706 47.4263 81.739C47.3801 81.673 47.2903 81.607 47.3431 81.5126C47.3873 81.4367 47.485 81.4625 47.5616 81.4605C48.046 81.4473 48.046 81.4473 48.3232 81.8479C48.4552 82.0419 48.5912 82.2373 48.7245 82.432C48.8829 82.6643 48.8915 82.6637 49.0545 82.4234C49.2281 82.17 49.4089 81.9212 49.5726 81.6618C49.6094 81.5921 49.6665 81.5352 49.7365 81.4988C49.8064 81.4623 49.8857 81.448 49.964 81.4578C50.0656 81.4658 50.1686 81.4578 50.2709 81.4578C50.4794 81.4671 50.5012 81.5067 50.3883 81.6743C50.1811 81.9812 49.9706 82.2861 49.762 82.5917C49.6465 82.7607 49.5383 82.9362 49.4142 83.0979C49.3145 83.2299 49.331 83.3303 49.4201 83.4576C49.7943 83.9942 50.1606 84.5354 50.5276 85.0766C50.5738 85.1426 50.6702 85.2119 50.6167 85.3017C50.5731 85.3736 50.4715 85.3419 50.3956 85.3413C49.7752 85.3353 49.9376 85.4073 49.6161 84.9453C49.4221 84.6681 49.234 84.3856 49.0413 84.1077C49.0017 84.0292 48.9423 83.9623 48.869 83.9137Z" fill="white"/>
<path d="M61.3252 82.9291C61.3252 83.3073 61.3252 83.6854 61.3252 84.0636C61.3252 84.5916 61.081 84.9724 60.6078 85.1902C60.3657 85.3092 60.0979 85.366 59.8284 85.3555C59.5588 85.345 59.2962 85.2676 59.0641 85.1302C58.8771 85.0326 58.7214 84.8844 58.6148 84.7024C58.5082 84.5204 58.4551 84.3121 58.4615 84.1012C58.4556 83.3053 58.4615 82.5093 58.4615 81.714C58.4615 81.4916 58.4879 81.4698 58.7031 81.4599H58.7268C59.0865 81.45 59.0984 81.4599 59.0984 81.8196C59.0984 82.5285 59.0984 83.2375 59.0984 83.9468C59.0984 84.1699 59.1558 84.3672 59.3353 84.5144C59.6198 84.7474 60.1524 84.75 60.4422 84.521C60.5224 84.4565 60.586 84.3737 60.6277 84.2795C60.6694 84.1854 60.6879 84.0826 60.6817 83.9798C60.6817 83.5935 60.6817 83.2074 60.6817 82.8215C60.6817 82.4512 60.6817 82.081 60.6817 81.7107C60.6817 81.491 60.7088 81.4692 60.9259 81.4599C61.3101 81.4441 61.3219 81.4599 61.3219 81.8421L61.3252 82.9291Z" fill="white"/>
<path d="M35.8545 83.3996C35.8545 82.8478 35.8545 82.296 35.8545 81.7443C35.8545 81.4803 35.873 81.4611 36.1363 81.4605C36.7356 81.4578 37.3347 81.4578 37.9335 81.4605C38.1698 81.4605 38.1896 81.4862 38.1975 81.7172C38.2054 82.0617 38.1975 82.0716 37.8444 82.0723C37.4741 82.0723 37.1039 82.0723 36.7336 82.0723C36.5211 82.0723 36.5013 82.0954 36.4967 82.3007C36.4927 82.4657 36.4927 82.6311 36.4967 82.797C36.502 82.9884 36.5218 83.0082 36.7217 83.0115C36.9897 83.0154 37.2577 83.0115 37.5256 83.0115C37.5916 83.0115 37.6517 83.0115 37.7144 83.0115C37.7459 83.01 37.7774 83.0161 37.8061 83.0293C37.9619 83.1362 37.8913 83.2992 37.8985 83.4405C37.9022 83.4642 37.9005 83.4885 37.8934 83.5114C37.8863 83.5344 37.8741 83.5555 37.8577 83.573C37.8413 83.5906 37.8211 83.6041 37.7987 83.6127C37.7763 83.6213 37.7522 83.6247 37.7282 83.6226C37.6622 83.6226 37.6022 83.6266 37.5388 83.6266C37.2788 83.6266 37.0187 83.6266 36.7587 83.6266C36.5145 83.6266 36.4993 83.6438 36.4947 83.8774C36.4947 84.0899 36.4947 84.3031 36.4947 84.5156C36.4947 84.7281 36.5125 84.7427 36.7224 84.7486C36.7693 84.7486 36.8168 84.7486 36.8636 84.7486H37.8332C38.1883 84.7486 38.2681 84.8542 38.1902 85.2106C38.1879 85.2423 38.1742 85.2721 38.1517 85.2946C38.1291 85.317 38.0992 85.3306 38.0675 85.3327C38.0441 85.336 38.0205 85.338 37.9969 85.3386C37.3507 85.3386 36.7046 85.3386 36.0584 85.3386C35.8809 85.3386 35.8604 85.3063 35.8565 85.0977C35.8525 84.5341 35.8545 83.9665 35.8545 83.3996Z" fill="white"/>
<path d="M21.0645 83.156H27.2078C27.2863 83.156 27.3656 83.156 27.4441 83.156C27.6091 83.1666 27.6467 83.2042 27.6461 83.3494C27.6454 83.4946 27.6091 83.5303 27.4415 83.5402C27.3708 83.5441 27.2996 83.5402 27.2289 83.5402H14.9193C14.8407 83.5402 14.7615 83.5402 14.683 83.5402C14.5437 83.5289 14.4995 83.4801 14.4995 83.3488C14.4995 83.2174 14.5437 83.1712 14.6856 83.16C14.7642 83.1534 14.8434 83.156 14.9219 83.156H21.0645Z" fill="white"/>
<path d="M78.6674 83.5441H72.5241C72.4456 83.5441 72.3664 83.5441 72.2878 83.5441C72.1228 83.5342 72.0859 83.4966 72.0898 83.35C72.0938 83.2035 72.1281 83.1705 72.2957 83.16C72.3617 83.156 72.4218 83.16 72.4845 83.16H84.8417C84.9203 83.1575 84.999 83.1597 85.0773 83.1666C85.1981 83.1804 85.2377 83.2326 85.2364 83.3566C85.2364 83.4655 85.1941 83.5401 85.0733 83.5434C84.9869 83.5434 84.9004 83.5474 84.8133 83.5474L78.6674 83.5441Z" fill="white"/>
<path d="M53.8316 85.346C53.642 85.3473 53.4544 85.3069 53.282 85.2278C53.1097 85.1486 52.9569 85.0326 52.8343 84.888C52.7274 84.7698 52.7313 84.7388 52.8449 84.6371C52.8917 84.5949 52.9439 84.5586 52.994 84.5203C53.192 84.3679 53.1973 84.3659 53.4032 84.5289C53.4745 84.585 53.5561 84.6264 53.6435 84.6509C53.7308 84.6754 53.8221 84.6824 53.9121 84.6715C54.0896 84.6556 54.2335 84.583 54.3015 84.4114C54.3675 84.2504 54.2883 84.1164 54.1794 84.0068C53.9464 83.7725 53.7062 83.5448 53.4686 83.3158C53.3834 83.234 53.2917 83.1594 53.2085 83.0756C52.8343 82.6961 52.7709 82.2176 53.0415 81.8348C53.3121 81.452 53.8698 81.3114 54.312 81.5114C54.4552 81.5778 54.5859 81.6684 54.6982 81.7793C54.776 81.8539 54.7833 81.9252 54.6909 81.9945C54.6348 82.0374 54.58 82.0829 54.5252 82.1265C54.3272 82.2862 54.3272 82.2869 54.1127 82.1522C54.0332 82.1001 53.9381 82.0768 53.8435 82.0862C53.7841 82.0885 53.7265 82.1068 53.6767 82.1391C53.6268 82.1714 53.5866 82.2165 53.5603 82.2697C53.5009 82.3918 53.5682 82.4862 53.6474 82.5647C53.9647 82.8807 54.2852 83.1944 54.609 83.5059C54.807 83.6966 54.9569 83.9131 54.9813 84.195C55.0374 84.8299 54.5193 85.3466 53.8316 85.346Z" fill="white"/>
<path d="M30.0999 83.688C30.0999 83.2392 30.0999 82.7904 30.0999 82.3416C30.0999 82.0954 30.0768 82.0776 29.8274 82.073C29.6624 82.073 29.4974 82.073 29.3317 82.073C29.0743 82.069 29.0558 82.0486 29.0545 81.7839C29.0545 81.4863 29.0743 81.4618 29.3759 81.4612C30.0843 81.4612 30.7927 81.4612 31.5011 81.4612C31.5562 81.4587 31.6114 81.4609 31.6661 81.4678C31.806 81.4915 31.8212 81.5285 31.8159 81.8077C31.812 82.0182 31.7961 82.0512 31.6562 82.0671C31.5632 82.0776 31.4675 82.0723 31.3731 82.0737H30.948C30.8345 82.0737 30.7698 82.1232 30.7725 82.2433C30.7725 82.3093 30.7725 82.3693 30.7725 82.432C30.7725 83.298 30.7725 84.1641 30.7725 85.0305C30.7725 85.3393 30.7652 85.344 30.4524 85.3453C30.1059 85.3453 30.1032 85.3453 30.1032 84.9869C30.101 84.5539 30.0999 84.121 30.0999 83.688Z" fill="white"/>
<path d="M56.2835 83.7098C56.2835 83.2531 56.2835 82.7957 56.2835 82.339C56.2835 82.0875 56.269 82.075 56.0129 82.075C55.8149 82.075 55.6169 82.0789 55.4222 82.071C55.2598 82.0651 55.2242 82.0314 55.2163 81.873C55.1945 81.4249 55.2526 81.4599 55.5865 81.4599C56.2725 81.4599 56.958 81.4599 57.6431 81.4599C57.985 81.4599 58.012 81.4883 57.9988 81.8189C57.9909 82.0341 57.9632 82.0651 57.7494 82.0704C57.5606 82.0756 57.3712 82.0704 57.1824 82.0704C56.9455 82.0704 56.929 82.0882 56.929 82.3297C56.929 83.2122 56.929 84.0952 56.929 84.9777C56.929 85.0483 56.929 85.1196 56.9244 85.1902C56.9257 85.21 56.9228 85.23 56.9158 85.2486C56.9089 85.2672 56.898 85.2842 56.8839 85.2982C56.8698 85.3123 56.8529 85.3232 56.8343 85.3302C56.8156 85.3372 56.7957 85.3401 56.7759 85.3387H56.729C56.2294 85.3479 56.2881 85.3387 56.2861 84.9341C56.2842 84.5295 56.2842 84.1197 56.2835 83.7098Z" fill="white"/>
<path d="M65.5156 83.3963C65.5156 82.8525 65.5156 82.3086 65.5156 81.7648C65.5156 81.4882 65.5413 81.4645 65.8079 81.4599C66.167 81.4526 66.1861 81.4704 66.1868 81.8202V84.9882C66.1868 85.0357 66.1868 85.0826 66.1868 85.1301C66.1756 85.309 66.1518 85.3393 65.9782 85.3426C65.474 85.3506 65.5162 85.3651 65.5162 84.9084C65.5145 84.4028 65.5142 83.8988 65.5156 83.3963Z" fill="white"/>
</svg>
