<svg width="144" height="32" viewBox="0 0 144 32" fill="none" xmlns="http://www.w3.org/2000/svg">
<path d="M78.0131 10.4481H81.2175V19.3616C81.2175 23.8861 78.7239 26.4812 74.38 26.4812C70.0811 26.4812 67.6102 23.9312 67.6102 19.4857V10.4593H70.8145V19.3842C70.8145 22.0244 72.1121 23.4348 74.4251 23.4348C76.7381 23.4348 78.0131 22.0583 78.0131 19.497V10.4481ZM59.9603 16.8117H52.7166V10.4481H49.5122V26.2443H52.7166V19.8242H59.949V26.2443H63.1534V10.4481H59.949V16.8117H59.9603ZM140.205 10.4481V26.2217H143.364V10.4481H140.205ZM127.624 19.4406H133.458V16.5634H127.624V13.3252H136.087V10.4593H124.465V26.233H136.391V23.3558H127.624V19.4406ZM115.055 21.3023L111.467 10.4368H108.85L105.262 21.3023L101.775 10.4481H98.3676L103.874 26.233H106.525L110.113 15.8639L113.701 26.233H116.375L121.87 10.4481H118.542L115.055 21.3023ZM92.6697 10.5383L99.5636 26.233H96.2013L94.7796 22.9496H87.5472L87.4457 23.1753L86.1143 26.233H82.8422L89.8038 10.4481H92.602L92.6697 10.5383ZM93.437 19.7227L91.1578 14.431L88.8899 19.7227L88.7319 20.0837H93.5836L93.437 19.7227Z" fill="#F4F4F4"/>
<path d="M17.9654 24.5624C18.0105 24.5285 18.0218 24.4608 17.9993 24.4044C14.8881 17.7174 11.0067 11.4164 6.43417 5.6295C6.43417 5.6295 2.80104 9.08211 3.06055 12.546C3.12134 13.3446 3.33898 14.1234 3.70102 14.8378C4.06306 15.5522 4.5624 16.1882 5.17047 16.7094C8.341 19.801 16.0134 23.7049 17.7962 24.5962C17.8526 24.6188 17.9203 24.6075 17.9654 24.5624ZM16.7807 27.2026C16.7581 27.1349 16.6904 27.0898 16.6114 27.0898L3.83908 27.5298C5.22689 30.0008 7.56247 31.9189 9.98832 31.3322C11.6695 30.9147 15.4606 28.2632 16.713 27.3606C16.8145 27.2816 16.7807 27.2139 16.7807 27.2026ZM16.9725 26.063C17.0402 25.9615 16.9274 25.8712 16.9274 25.8712C11.3197 22.0801 0.442891 16.2581 0.442891 16.2581C0.0823746 17.3631 -0.0184777 18.5364 0.148172 19.6867C0.314822 20.837 0.744485 21.9334 1.40377 22.8907C2.06305 23.848 2.9342 24.6403 3.94949 25.2062C4.96479 25.772 6.0969 26.0961 7.25783 26.1533C7.44964 26.1871 14.8513 26.1533 16.8371 26.142C16.8935 26.1307 16.9386 26.1082 16.9725 26.063ZM17.8187 0.112113C17.2659 0.157245 15.7652 0.507018 15.7652 0.507018C12.3803 1.37581 11.5792 4.45607 11.5792 4.45607C10.9587 6.38547 11.5905 8.51795 11.5905 8.51795C12.7188 13.5276 18.27 21.7755 19.466 23.5018C19.545 23.5921 19.6127 23.5582 19.6127 23.5582C19.6804 23.5356 19.7368 23.4792 19.7368 23.4002C21.5872 4.98637 17.8187 0.112113 17.8187 0.112113ZM22.0499 23.5356C22.1175 23.5582 22.1965 23.5356 22.2304 23.4679C23.4602 21.6965 28.9776 13.4938 30.1059 8.50667C30.1059 8.50667 30.7152 6.09211 30.1285 4.44479C30.1285 4.44479 29.2935 1.3194 25.9086 0.495735C25.9086 0.495735 24.9383 0.247509 23.9003 0.10083C23.9003 0.10083 20.1092 4.97509 21.9596 23.389C21.9483 23.4567 21.9934 23.5131 22.0499 23.5356ZM25.0737 27.1011C25.0436 27.1071 25.0151 27.1193 24.9899 27.1367C24.9647 27.1542 24.9433 27.1766 24.927 27.2026C24.9157 27.2703 24.927 27.3267 24.9722 27.3719C26.1907 28.2519 29.9028 30.847 31.6855 31.3435C31.6855 31.3435 34.9915 32.4718 37.8573 27.5411L25.0737 27.1011ZM41.2648 16.2355C41.2648 16.2355 30.4106 22.0688 24.7916 25.8599C24.7352 25.9051 24.7014 25.9728 24.7239 26.0405C24.7239 26.0405 24.7803 26.142 24.8593 26.142C26.8677 26.142 34.4724 26.1533 34.6755 26.1194C35.4315 26.063 36.1762 25.8938 36.8757 25.6117C36.8757 25.6117 39.5836 24.7542 40.9827 21.6739C40.9827 21.6739 42.2352 19.1691 41.2648 16.2355ZM23.7649 24.5624C23.81 24.5962 23.8777 24.6075 23.9341 24.5737C25.762 23.6598 33.378 19.7897 36.526 16.7094C36.526 16.7094 38.523 15.1072 38.6246 12.5234C38.8503 8.94671 35.251 5.6295 35.251 5.6295C35.251 5.6295 28.594 13.6969 23.7085 24.3593C23.7006 24.3952 23.7017 24.4324 23.7115 24.4678C23.7213 24.5032 23.7396 24.5357 23.7649 24.5624Z" fill="#F4F4F4"/>
</svg>
