<svg width="128" height="28" viewBox="0 0 128 28" fill="none" xmlns="http://www.w3.org/2000/svg">
<g clip-path="url(#clip0_817_1123)">
<path d="M13.5741 1.26741H6.12161V1.87228H8.53771V14.1885C8.53771 17.924 7.53122 18.9329 5.2159 18.9329C3.80629 18.9329 3.50396 17.8229 3.50396 17.3178C3.50396 16.0057 3.40318 15.0978 2.19384 15.0978C0.985787 15.0978 0.785522 16.3088 0.785522 16.7129C0.785522 18.4291 1.59046 19.7412 4.91356 19.7412C8.94212 19.7412 11.0559 18.4291 11.0559 13.8868V1.87098H13.4733V1.26741H13.5741ZM14.5818 16.9137C14.1787 16.9137 13.7756 17.0173 13.5741 17.3178C13.2717 17.6209 13.1709 17.924 13.1709 18.3281C13.1709 18.7296 13.2717 19.034 13.5741 19.3383C13.8764 19.6401 14.1787 19.7399 14.5818 19.7399C14.9837 19.7399 15.286 19.6388 15.5883 19.3383C15.8907 19.0353 15.9914 18.7296 15.9914 18.3281C15.9914 17.924 15.8907 17.6209 15.5883 17.3178C15.286 17.0147 14.9837 16.9137 14.5805 16.9137H14.5818ZM31.0966 16.9137C30.6935 16.9137 30.3911 17.0173 30.0888 17.3178C29.7878 17.6209 29.687 17.924 29.687 18.3281C29.687 18.7296 29.7878 19.034 30.0888 19.3383C30.3911 19.6401 30.6935 19.7399 31.0966 19.7399C31.4997 19.7399 31.9015 19.6388 32.1044 19.3383C32.4054 19.034 32.5062 18.7296 32.5062 18.3281C32.5062 17.924 32.4054 17.6209 32.1031 17.3178C31.8007 17.0147 31.4997 16.9137 31.0953 16.9137H31.0966ZM25.8587 1.26741H18.6078V1.87228H20.7229V16.007C20.7229 17.117 20.6221 17.4188 20.5213 17.7219C20.4205 18.1273 20.1182 18.3294 19.6143 18.5314C19.3133 18.6324 18.8094 18.7322 18.1039 18.7322V19.3383H25.9595V18.7322C25.254 18.7322 24.7514 18.6324 24.4478 18.5314C23.9452 18.3294 23.6429 18.0263 23.5434 17.7232C23.4089 17.3687 23.3402 16.9925 23.3405 16.6132V11.7652H25.254C30.8937 11.7652 32.5049 9.54517 32.5049 6.51565C32.5049 3.38639 31.5992 1.26611 25.8587 1.26611V1.26741ZM24.8509 11.0593H23.3405V1.9733H24.6506C28.9802 1.9733 29.9867 3.7905 29.9867 6.61667C29.9867 9.54388 28.2761 11.0593 24.8509 11.0593ZM55.7679 17.6209C55.6351 17.231 55.567 16.8219 55.5664 16.4098V1.87228H57.4786V1.26741H52.8492C52.7485 1.46946 47.3116 14.9968 47.3116 14.9968L47.2108 15.0991C47.11 15.0991 47.11 15.0991 47.11 14.9981C47.11 14.9981 41.27 1.36844 41.27 1.26741H36.1303V1.87357H38.3462V17.2181C38.3462 17.5224 38.2454 17.8255 38.0438 18.1273C37.8423 18.4304 37.5399 18.6324 37.2376 18.7322C37.0361 18.8358 36.6342 18.8358 36.2298 18.8358V19.4394H41.2662V18.8332C40.8631 18.8332 40.6615 18.7322 40.3605 18.7322C39.9573 18.6312 39.7558 18.4291 39.5542 18.126C39.3527 17.924 39.2519 17.6209 39.2519 17.2181L39.1511 15.9047V3.78921H39.4534C39.4534 3.78921 45.9989 19.1337 46.0997 19.3358H46.6035L52.8466 3.89153H53.0482V16.4098C53.0482 16.915 52.9474 17.3178 52.8466 17.7219C52.7459 18.126 52.4448 18.3281 52.0417 18.5301C51.6198 18.6704 51.1773 18.7383 50.7329 18.7309V19.337H57.7822V18.7309C57.3373 18.7383 56.8944 18.6705 56.4721 18.5301C56.171 18.3281 55.8687 18.025 55.7679 17.6209ZM65.3341 6.11283C61.5071 6.11283 59.1918 8.63593 59.1918 12.9775C59.1918 19.4381 64.2269 19.8422 65.2334 19.8422C67.3484 19.8422 71.377 18.5301 71.377 12.8778C71.377 8.43517 68.758 6.11283 65.3341 6.11283ZM65.2334 19.034C62.4141 19.034 61.9103 17.6222 61.9103 13.0785C61.9103 9.54517 62.1118 6.91976 65.2334 6.91976C68.5565 6.91976 68.5565 9.6449 68.5565 12.8752C68.5565 17.4188 67.7515 19.034 65.2334 19.034ZM81.2468 6.31489C79.0297 6.31489 78.226 7.62695 77.6201 9.04004H77.4185C77.4185 9.04004 77.1175 7.02078 77.0167 6.51565H72.585V7.22284H75.0011V16.1068C75.0011 17.0147 74.9016 17.6222 74.7014 18.0237C74.4985 18.4291 73.8938 18.7309 72.9881 18.7309H72.585V19.5391H80.0375V18.7309H79.6343C78.6266 18.7309 78.226 18.5301 78.0219 18.126C77.8216 17.7219 77.7208 17.1157 77.7208 16.2078V11.3624C77.7208 9.84696 78.9289 8.03106 80.3398 8.03106C81.8502 8.03106 81.7481 10.2511 83.4613 9.34312C84.2676 8.83798 84.066 6.31489 81.2468 6.31489ZM110.55 18.0237C109.744 18.0237 109.544 17.6222 109.443 16.814V9.74723C109.443 8.5349 109.24 7.829 108.537 7.12052C107.832 6.41462 106.522 6.11024 104.609 6.11024C102.797 6.11024 101.488 6.41462 100.581 7.12052C99.7758 7.72798 99.374 8.33284 99.374 9.24209C99.374 9.64361 99.4748 9.94799 99.675 10.049C99.8766 10.2511 100.179 10.3521 100.48 10.3521C101.184 10.3521 101.589 9.95058 101.789 9.04004C101.892 8.33284 102.091 7.93003 102.395 7.52463C102.795 7.12311 103.403 6.91976 104.105 6.91976C105.012 6.91976 105.717 7.12052 106.019 7.62565C106.321 8.13079 106.523 8.73695 106.523 9.54258V11.6642C104.205 11.8662 98.5665 12.3701 98.8688 16.6106C98.9696 18.2257 100.38 19.7399 102.293 19.7399C104.408 19.7399 105.715 18.5301 106.621 17.6196C106.723 18.5288 107.629 19.6401 109.14 19.6401C110.851 19.6401 111.859 18.8319 111.961 16.7116H111.558C111.558 17.5199 111.054 18.025 110.55 18.025V18.0237ZM106.724 16.6119V16.7129L106.624 16.814C105.416 17.9253 104.409 18.3294 103.704 18.3294C101.891 18.3294 101.589 16.814 101.589 16.1081C101.589 13.686 104.912 12.4737 106.724 12.4737V16.6119ZM125.657 17.924C125.455 17.5211 125.153 16.9137 125.153 16.007V10.15C125.153 9.34312 125.052 8.5349 124.749 8.03106C124.447 7.42489 123.945 7.02078 123.441 6.7177C122.836 6.41462 122.233 6.31489 121.528 6.31489C118.91 6.31489 117.902 7.93003 117.298 8.83798H117.097L116.593 6.51565H112.564V7.22284H114.58V16.1068C114.58 16.814 114.478 17.3178 114.377 17.6222C114.275 18.0237 113.977 18.3281 113.673 18.4291C113.471 18.5301 113.068 18.6312 112.564 18.6312V19.4381H118.908V18.6312C118.304 18.5301 117.8 18.4291 117.599 18.126C117.398 17.8229 117.198 17.2168 117.198 16.3088V12.8765C117.198 11.4647 117.198 10.049 117.701 9.24209C118.204 8.33284 119.211 7.829 120.218 7.829C121.226 7.829 121.729 8.13208 122.032 8.73695C122.333 9.24209 122.433 10.7562 122.433 11.7652V16.0057C122.433 16.7116 122.536 17.2168 122.433 17.5211C122.333 17.9227 122.233 18.227 121.929 18.4278C121.729 18.6312 121.324 18.6312 120.923 18.7309V19.5391H127.067V18.7309C126.361 18.4291 125.858 18.2257 125.657 17.924ZM96.8558 5.50667C96.4527 5.6077 96.2512 6.01181 96.0496 6.51694C95.9488 7.02208 95.7473 7.32387 95.4449 7.4236C95.1426 7.52592 94.8416 7.52592 94.5392 7.32387C93.8351 6.7177 92.6257 6.01181 90.4099 6.01181C86.7844 6.01181 85.2741 8.5349 85.2741 10.8559C85.2741 13.5824 86.2818 14.8957 88.5959 15.3996C88.6979 15.3996 88.6979 15.6016 88.5959 15.6016C86.6837 16.0057 84.8709 16.6119 84.8709 18.4291C84.8709 19.5404 85.4756 20.1453 86.3826 20.5494C87.287 20.9522 88.5959 21.1555 90.2083 21.1555C91.6166 21.1555 92.6244 21.2566 93.2291 21.2566C93.8361 21.335 94.4196 21.5416 94.941 21.8627C95.3442 22.1658 95.5457 22.671 95.5457 23.2745C95.5457 24.1838 95.0418 24.7899 94.1361 25.3961C93.2317 25.9012 92.1205 26.1033 90.6114 26.1033C89.4034 26.1033 88.2961 26.001 87.3891 25.3961C86.685 24.992 86.5829 24.1851 86.685 23.5789C86.787 22.9727 86.5829 22.3679 85.8787 22.1658C85.6645 22.1185 85.4407 22.1421 85.241 22.2332C85.0413 22.3243 84.8766 22.4779 84.7715 22.671C84.5686 22.9714 84.4678 23.3756 84.4678 23.8807C84.4678 25.3948 85.6772 26.1007 86.5829 26.4038C87.9925 26.8066 88.9008 26.9089 90.1076 26.9089C91.8208 26.9089 93.1283 26.6058 94.1361 26.2017C95.1439 25.6966 95.7486 25.0917 96.1504 24.3845C96.5522 23.6786 96.7551 22.9714 96.7551 22.2643C96.7551 21.3563 96.5522 20.5481 96.1504 20.0442C94.8415 18.3281 93.0275 18.5288 89.0003 18.3281C87.0868 18.3281 86.6837 17.924 86.6837 17.3178C86.6837 16.4098 87.3891 16.1068 90.2083 15.6016C93.0275 15.1975 95.6452 14.0875 95.6452 10.7562C95.6452 9.74593 95.4449 8.93901 95.1413 8.33414C95.7473 8.43387 96.2512 8.43387 96.7538 8.33414C97.3597 8.13208 97.6595 7.829 97.8623 7.52592C98.0639 7.12181 98.1634 6.7177 97.9631 6.41462C98.0639 5.6077 97.56 5.30462 96.8558 5.50667ZM90.5119 14.9968C88.8013 14.9968 87.893 14.3893 87.893 10.9583C87.893 8.53619 88.6992 6.7177 90.5119 6.7177C92.627 6.7177 93.2304 8.33284 93.2304 10.8572C93.2304 14.4916 92.1231 14.9968 90.5119 14.9968Z" fill="#F3F3F3"/>
</g>
<defs>
<clipPath id="clip0_817_1123">
<rect width="126.619" height="27.1997" fill="white" transform="translate(0.767456 0.255615)"/>
</clipPath>
</defs>
</svg>
