<svg width="43" height="23" viewBox="0 0 43 23" fill="none" xmlns="http://www.w3.org/2000/svg">
<g id="Meta">
<path id="Vector" d="M6.43053 22.4434C4.88371 22.4434 3.52417 22.101 2.35192 21.4163C1.17944 20.7316 0.26568 19.7834 -0.389357 18.5716C-1.04462 17.3598 -1.37219 15.9707 -1.37207 14.4043C-1.37207 12.8182 -1.05189 11.4144 -0.411532 10.1926C0.228823 8.97119 1.11795 8.01554 2.25586 7.32568C3.3938 6.63625 4.70162 6.29144 6.17934 6.29126C7.64718 6.29126 8.91068 6.63852 9.96986 7.33303C11.0287 8.02774 11.8439 9.00064 12.4155 10.2517C12.9868 11.503 13.2725 12.9709 13.2726 14.6555V15.5716H1.93812C2.14506 16.8329 2.65492 17.8254 3.46768 18.5493C4.28044 19.2735 5.30746 19.6355 6.54876 19.6355C7.54374 19.6355 8.40085 19.4877 9.1201 19.1921C9.83915 18.8966 10.514 18.4484 11.1447 17.8475L12.918 20.0197C11.1543 21.6356 8.99183 22.4435 6.43053 22.4434ZM8.8689 10.1704C8.16928 9.45623 7.25307 9.09909 6.12026 9.09896C5.01676 9.09896 4.09315 9.46352 3.34944 10.1926C2.60547 10.9217 2.13503 11.9019 1.93812 13.1334H10.0659C9.9673 11.8723 9.5683 10.8846 8.8689 10.1704Z" fill="#F4F4F4"/>
<path id="Vector_2" d="M17.3221 9.39598H14.2483V6.66206H17.3221V2.14014H20.5436V6.66206H25.2133V9.39598H20.5436V16.3267C20.5436 17.4792 20.7406 18.3018 21.1347 18.7945C21.5286 19.2872 22.2035 19.5335 23.1593 19.5333C23.5827 19.5333 23.9423 19.5161 24.2381 19.4816C24.5336 19.4473 24.8587 19.4005 25.2133 19.3412V22.0455C24.8087 22.1626 24.3964 22.2515 23.9794 22.3116C23.5024 22.3818 23.0208 22.4164 22.5386 22.415C19.0608 22.415 17.322 20.5137 17.3221 16.7109V9.39598Z" fill="#F4F4F4"/>
<path id="Vector_3" d="M42.0012 22.0738H38.8388V19.9163C38.2772 20.7243 37.563 21.3474 36.696 21.7857C35.829 22.2239 34.8438 22.4431 33.7405 22.4434C32.3809 22.4434 31.1766 22.0961 30.1273 21.4014C29.0781 20.7069 28.253 19.7513 27.6521 18.5346C27.0511 17.3179 26.7506 15.9263 26.7506 14.36C26.7506 12.7837 27.056 11.3896 27.6669 10.1777C28.2776 8.96609 29.1224 8.01541 30.2012 7.32568C31.28 6.63625 32.5188 6.29144 33.9178 6.29126C34.9719 6.29126 35.9177 6.49571 36.7551 6.90462C37.5812 7.30423 38.2967 7.90042 38.8388 8.64091V6.66078H42.0012V22.0738ZM38.7797 12.0546C38.4347 11.1778 37.8904 10.4857 37.1467 9.97824C36.4028 9.47093 35.5432 9.21728 34.568 9.21728C33.1886 9.21728 32.0902 9.6803 31.2726 10.6063C30.4548 11.5324 30.0459 12.7836 30.0461 14.3599C30.0461 15.9462 30.4402 17.2023 31.2283 18.1283C32.0163 19.0544 33.0853 19.5174 34.4351 19.5173C35.43 19.5173 36.3166 19.2612 37.095 18.7488C37.8731 18.2368 38.4347 17.5472 38.7797 16.68L38.7797 12.0546Z" fill="#F4F4F4"/>
</g>
</svg>
