<svg width="129" height="28" viewBox="0 0 129 28" fill="none" xmlns="http://www.w3.org/2000/svg">
<g clip-path="url(#clip0_817_1124)">
<path d="M128.148 12.5604V10.321H125.367V6.83949L125.274 6.86832L122.662 7.66752L122.61 7.68317V10.3211H118.487V8.85155C118.487 8.16727 118.64 7.64362 118.942 7.2944C119.241 6.94937 119.67 6.77396 120.216 6.77396C120.609 6.77396 121.015 6.86647 121.425 7.0489L121.527 7.09472V4.73628L121.479 4.71854C121.097 4.58131 120.578 4.51221 119.934 4.51221C119.123 4.51221 118.386 4.68873 117.743 5.03857C117.1 5.3889 116.594 5.88902 116.24 6.52488C115.887 7.16001 115.708 7.89356 115.708 8.70533V10.321H113.771V12.5604H115.708V21.9949H118.487V12.5604H122.61V18.5559C122.61 21.025 123.775 22.2763 126.072 22.2763C126.449 22.2763 126.847 22.2321 127.252 22.1455C127.665 22.0566 127.946 21.9678 128.112 21.8729L128.148 21.8512V19.5911L128.035 19.6658C127.884 19.7664 127.697 19.8485 127.476 19.9096C127.255 19.9718 127.07 20.003 126.927 20.003C126.389 20.003 125.991 19.858 125.744 19.5719C125.494 19.2831 125.368 18.7782 125.368 18.0719V12.5604H128.148ZM107.563 20.0034C106.554 20.0034 105.759 19.6688 105.198 19.0098C104.634 18.3474 104.348 17.4031 104.348 16.2033C104.348 14.9655 104.634 13.9966 105.198 13.3226C105.759 12.653 106.547 12.3131 107.541 12.3131C108.504 12.3131 109.272 12.6377 109.821 13.2784C110.374 13.9223 110.654 14.8834 110.654 16.1357C110.654 17.4034 110.391 18.3771 109.871 19.0285C109.354 19.675 108.578 20.0034 107.563 20.0034ZM107.687 10.0398C105.762 10.0398 104.233 10.6038 103.143 11.7163C102.053 12.8289 101.501 14.3685 101.501 16.2929C101.501 18.1206 102.04 19.5908 103.104 20.6619C104.167 21.7333 105.615 22.2761 107.405 22.2761C109.271 22.2761 110.77 21.7041 111.859 20.5763C112.949 19.4497 113.501 17.9245 113.501 16.0451C113.501 14.1888 112.983 12.7076 111.961 11.6437C110.938 10.5793 109.5 10.0398 107.687 10.0398ZM97.0189 10.0398C95.7095 10.0398 94.6264 10.3747 93.799 11.0351C92.9665 11.6994 92.5442 12.5707 92.5442 13.625C92.5442 14.173 92.6354 14.6598 92.8147 15.0727C92.9952 15.487 93.2745 15.8518 93.6455 16.1579C94.0137 16.4615 94.582 16.7796 95.3352 17.1032C95.9683 17.3637 96.4405 17.5841 96.7404 17.7578C97.0336 17.928 97.2417 18.0991 97.3592 18.2658C97.4734 18.4289 97.5313 18.6521 97.5313 18.9275C97.5313 19.7118 96.9439 20.0934 95.7354 20.0934C95.2871 20.0934 94.7758 19.9998 94.2157 19.8153C93.6596 19.6335 93.1347 19.3674 92.6594 19.0262L92.544 18.9434V21.6198L92.5864 21.6395C92.9797 21.821 93.4756 21.9742 94.0601 22.0946C94.6435 22.2152 95.1736 22.2766 95.634 22.2766C97.0549 22.2766 98.1992 21.94 99.0341 21.2757C99.8743 20.6068 100.3 19.715 100.3 18.6242C100.3 17.8373 100.071 17.1625 99.6191 16.6183C99.1703 16.0785 98.3914 15.583 97.3051 15.1449C96.4396 14.7976 95.8852 14.5092 95.6564 14.2878C95.4359 14.074 95.324 13.7716 95.324 13.3886C95.324 13.0491 95.4622 12.7771 95.7459 12.5569C96.0318 12.3355 96.4298 12.2229 96.9289 12.2229C97.3921 12.2229 97.8659 12.2961 98.3372 12.4395C98.8082 12.5829 99.2218 12.7749 99.5671 13.0098L99.6807 13.0874V10.5486L99.6371 10.5299C99.3185 10.3933 98.8985 10.2764 98.3882 10.1815C97.8804 10.0873 97.4197 10.0398 97.0189 10.0398ZM85.2973 20.0034C84.2886 20.0034 83.4928 19.6688 82.9323 19.0098C82.3681 18.3474 82.0828 17.4034 82.0828 16.2033C82.0828 14.9655 82.3685 13.9966 82.9329 13.3226C83.4934 12.653 84.2812 12.3131 85.275 12.3131C86.2385 12.3131 87.0058 12.6377 87.5556 13.2784C88.1081 13.9223 88.3883 14.8834 88.3883 16.1357C88.3883 17.4034 88.1246 18.3771 87.6047 19.0285C87.0885 19.675 86.3126 20.0034 85.2973 20.0034ZM85.4212 10.0398C83.4957 10.0398 81.9667 10.6038 80.8771 11.7163C79.7877 12.8289 79.235 14.3685 79.235 16.2929C79.235 18.1214 79.7745 19.5908 80.8381 20.6619C81.9016 21.7333 83.3489 22.2761 85.1396 22.2761C87.0053 22.2761 88.5042 21.7041 89.5939 20.5763C90.6832 19.4497 91.2354 17.9245 91.2354 16.0451C91.2354 14.1888 90.7173 12.7076 89.695 11.6437C88.6722 10.5793 87.2342 10.0398 85.4212 10.0398ZM75.0153 12.3427V10.321H72.2693V21.9946H75.0153V16.0231C75.0153 15.0077 75.2455 14.1735 75.6998 13.5434C76.1483 12.9209 76.746 12.6054 77.4757 12.6054C77.723 12.6054 78.0007 12.6462 78.3014 12.7269C78.599 12.8071 78.8146 12.8941 78.9417 12.9858L79.0571 13.0694V10.301L79.0126 10.2819C78.7569 10.1733 78.3951 10.1185 77.9374 10.1185C77.2473 10.1185 76.6298 10.3402 76.1009 10.7768C75.6366 11.1605 75.301 11.6866 75.0445 12.3427H75.0153ZM67.3517 10.0398C66.0919 10.0398 64.9683 10.3099 64.0125 10.8424C63.0547 11.3762 62.3141 12.1382 61.8101 13.1071C61.3084 14.0737 61.0536 15.2028 61.0536 16.462C61.0536 17.565 61.3006 18.5772 61.7888 19.4692C62.2772 20.3628 62.9685 21.0619 63.8436 21.5467C64.7175 22.0309 65.7274 22.2764 66.8457 22.2764C68.1507 22.2764 69.2649 22.0155 70.1582 21.501L70.1943 21.4803V18.9646L70.0788 19.0488C69.6742 19.3436 69.222 19.5789 68.7354 19.7484C68.2501 19.9178 67.8076 20.0034 67.4196 20.0034C66.3421 20.0034 65.4771 19.6662 64.8493 19.0015C64.22 18.336 63.901 17.4014 63.901 16.2254C63.901 15.042 64.2337 14.0833 64.8894 13.376C65.5431 12.6708 66.4097 12.3131 67.4649 12.3131C68.3675 12.3131 69.247 12.6187 70.0791 13.2223L70.1943 13.3059V10.6552L70.1571 10.6342C69.8439 10.459 69.4169 10.3142 68.8867 10.2045C68.3587 10.095 67.8423 10.0398 67.3517 10.0398ZM59.1624 10.3211H56.4165V21.9946H59.1624V10.3211ZM57.8175 5.34812C57.3656 5.34812 56.9714 5.50198 56.6475 5.80685C56.3223 6.11259 56.1574 6.49754 56.1574 6.95183C56.1574 7.39898 56.3204 7.77691 56.6425 8.07452C56.9625 8.37126 57.3579 8.52167 57.8176 8.52167C58.2772 8.52167 58.6741 8.37126 58.998 8.07501C59.3239 7.77691 59.4892 7.39911 59.4892 6.95183C59.4892 6.51343 59.3284 6.13242 59.0114 5.81917C58.6947 5.50653 58.2929 5.34812 57.8175 5.34812ZM50.9661 9.45982V21.9946H53.7685V5.70547H49.8899L44.9599 17.8046L40.1756 5.70547H36.139V21.9945H38.7726V9.45859H38.863L43.915 21.9946H45.9025L50.8757 9.45982H50.9661Z" fill="#F4F4F4"/>
<path d="M13.727 13.1803H0.809082V0.262451H13.727V13.1803Z" fill="#F4F4F4"/>
<path d="M27.9898 13.1803H15.0721V0.262451H27.9898V13.1803Z" fill="#F4F4F4"/>
<path d="M13.7266 27.4478H0.809082V14.53H13.7266V27.4478Z" fill="#F4F4F4"/>
<path d="M27.9898 27.4478H15.0721V14.53H27.9898V27.4478Z" fill="#F4F4F4"/>
</g>
<defs>
<clipPath id="clip0_817_1124">
<rect width="127.838" height="27.1997" fill="white" transform="translate(0.809082 0.255615)"/>
</clipPath>
</defs>
</svg>
