<svg width="120" height="32" viewBox="0 0 120 32" fill="none" xmlns="http://www.w3.org/2000/svg">
<g clip-path="url(#clip0_817_1126)">
<path d="M70.1298 8.85075L76.9839 6.29869L70.1298 3.67371V0.10083L81.8692 4.84037V7.75701L70.1298 12.4965V8.85075Z" fill="#F4F4F4"/>
<path d="M5.30778 31.4556C2.82863 31.4556 0.786987 30.2161 0.786987 27.4453V27.2994C0.786987 23.9453 3.70363 22.7786 7.27651 22.7786H8.95358V22.1224C8.95358 20.737 8.37025 19.9349 6.91193 19.9349C5.59944 19.9349 4.9432 20.6641 4.87028 21.6849H1.22448C1.51615 18.6224 3.92237 17.1641 7.13068 17.1641C10.4119 17.1641 12.8181 18.5495 12.8181 21.9766V31.164H9.09941V29.5598C8.37025 30.5807 7.13068 31.4556 5.30778 31.4556ZM8.95358 26.6432V25.3307H7.42234C5.52653 25.3307 4.57862 25.8411 4.57862 27.0807V27.2265C4.57862 28.1744 5.16195 28.8307 6.47443 28.8307C7.78692 28.7578 8.95358 28.0286 8.95358 26.6432ZM21.4951 31.4556C17.7035 31.4556 14.9327 29.1223 14.9327 24.4557V24.237C14.9327 19.5703 17.8493 17.0912 21.4951 17.0912C24.6305 17.0912 27.1826 18.6953 27.4742 22.2682H23.8284C23.6097 20.9557 22.8805 20.0807 21.568 20.0807C19.9639 20.0807 18.7972 21.3932 18.7972 24.0911V24.5286C18.7972 27.2994 19.8181 28.539 21.568 28.539C22.8805 28.539 23.8284 27.5911 24.0472 26.0599H27.5472C27.3284 29.2682 25.2138 31.4556 21.4951 31.4556ZM35.7867 31.4556C31.995 31.4556 29.2242 29.1223 29.2242 24.4557V24.237C29.2242 19.5703 32.1409 17.0912 35.7867 17.0912C38.922 17.0912 41.4741 18.6953 41.7658 22.2682H38.12C37.9012 20.9557 37.1721 20.0807 35.8596 20.0807C34.2554 20.0807 33.0888 21.3932 33.0888 24.0911V24.5286C33.0888 27.2994 34.1096 28.539 35.8596 28.539C37.1721 28.539 38.12 27.5911 38.3387 26.0599H41.8387C41.6199 29.2682 39.5054 31.4556 35.7867 31.4556ZM50.1511 31.4556C46.2136 31.4556 43.5157 29.1223 43.5157 24.5286V24.237C43.5157 19.6433 46.3595 17.0912 50.0782 17.0912C53.5052 17.0912 56.349 18.987 56.349 23.5807V25.2578H47.3803C47.5261 27.7369 48.6199 28.6848 50.224 28.6848C51.6823 28.6848 52.4844 27.8828 52.7761 26.9349H56.349C55.9115 29.4869 53.724 31.4556 50.1511 31.4556ZM47.4532 22.7057H52.5573C52.4844 20.6641 51.5365 19.7891 50.0053 19.7891C48.8386 19.862 47.7449 20.5182 47.4532 22.7057ZM58.6823 17.4558H62.5468V19.4974C63.2031 18.1849 64.5885 17.1641 66.703 17.1641C69.1822 17.1641 70.8592 18.6953 70.8592 21.9766V31.164H66.9947V22.5599C66.9947 20.9557 66.3384 20.2266 64.953 20.2266C63.6406 20.2266 62.5468 21.0287 62.5468 22.7786V31.164H58.6823V17.4558ZM77.9321 13.2996V17.4558H80.5571V20.2995H77.9321V26.789C77.9321 27.8098 78.3696 28.3203 79.3175 28.3203C79.9008 28.3203 80.2654 28.2473 80.63 28.1015V31.0911C80.1925 31.2369 79.3904 31.3827 78.4425 31.3827C75.4529 31.3827 74.0675 29.9973 74.0675 27.2265V20.2995H72.4634V17.4558H74.0675V14.9037L77.9321 13.2996ZM94.9944 31.164H91.2028V29.1223C90.5466 30.4348 89.2341 31.4556 87.1924 31.4556C84.7133 31.4556 82.8904 29.9244 82.8904 26.7161V17.4558H86.7549V26.2057C86.7549 27.8098 87.4112 28.539 88.7237 28.539C90.0361 28.539 91.1299 27.664 91.1299 25.9869V17.4558H94.9944V31.164ZM97.8382 17.4558H101.703V20.0078C102.505 18.1849 103.817 17.3099 105.859 17.3099V21.1016C103.234 21.1016 101.703 21.9036 101.703 24.164V31.2369H97.8382V17.4558ZM113.661 31.4556C109.723 31.4556 107.026 29.1223 107.026 24.5286V24.237C107.026 19.6433 109.869 17.0912 113.588 17.0912C117.015 17.0912 119.859 18.987 119.859 23.5807V25.2578H110.963C111.109 27.7369 112.203 28.6848 113.807 28.6848C115.265 28.6848 116.067 27.8828 116.359 26.9349H119.932C119.348 29.4869 117.234 31.4556 113.661 31.4556ZM110.89 22.7057H116.067C115.994 20.6641 115.046 19.7891 113.515 19.7891C112.348 19.862 111.255 20.5182 110.89 22.7057Z" fill="#F4F4F4"/>
</g>
<defs>
<clipPath id="clip0_817_1126">
<rect width="118.999" height="31.3539" fill="white" transform="translate(0.787109 0.101318)"/>
</clipPath>
</defs>
</svg>
