<svg width="92" height="28" viewBox="0 0 92 28" fill="none" xmlns="http://www.w3.org/2000/svg">
<path fill-rule="evenodd" clip-rule="evenodd" d="M56.7249 21.5291C51.4942 25.3967 43.8859 27.4573 37.3237 27.4573C28.1304 27.4573 19.8881 24.0652 13.6112 18.4224C13.1357 17.9786 13.5478 17.3763 14.1501 17.725C20.9025 21.6559 29.2399 24.0018 37.8627 24.0018C43.664 24.0018 50.0676 22.7972 55.9641 20.2928C56.8517 19.9441 57.5808 20.8951 56.7249 21.5291Z" fill="#F4F4F4"/>
<path fill-rule="evenodd" clip-rule="evenodd" d="M58.9124 19.0225C58.2466 18.1665 54.4742 18.6103 52.794 18.8323C52.2868 18.8957 52.1917 18.4518 52.6672 18.1348C55.6788 16.0108 60.5925 16.6449 61.1631 17.3423C61.7338 18.0397 61.0046 22.9851 58.1832 25.331C57.7394 25.6797 57.3273 25.4895 57.5175 25.014C58.1515 23.4289 59.5781 19.9101 58.9124 19.0225Z" fill="#F4F4F4"/>
<path fill-rule="evenodd" clip-rule="evenodd" d="M52.8891 3.23651V1.17593C52.8891 0.858913 53.111 0.668704 53.3963 0.668704L62.5896 0.668704C62.8749 0.668704 63.1285 0.890614 63.1285 1.17593V2.91949C63.1285 3.2048 62.8749 3.58522 62.4311 4.21925L57.6759 11.0033C59.4512 10.9716 61.3216 11.2252 62.9066 12.1128C63.2554 12.3031 63.3505 12.6201 63.3822 12.9054V15.0928C63.3822 15.4098 63.0652 15.7585 62.7164 15.5683C59.895 14.0783 56.1226 13.9198 53.0159 15.6C52.6988 15.7585 52.3501 15.4415 52.3501 15.1245V13.0322C52.3501 12.7152 52.3501 12.1446 52.6988 11.6373L58.2149 3.74373L53.428 3.74373C53.1427 3.74373 52.8891 3.52182 52.8891 3.23651ZM19.3808 16.0121H16.5911C16.3375 15.9804 16.1156 15.7902 16.0839 15.5366V1.20763C16.0839 0.922318 16.3375 0.700407 16.6228 0.700407L19.2223 0.700407C19.5077 0.700407 19.6979 0.922316 19.7296 1.17593V3.0463H19.793C20.4587 1.23933 21.7584 0.383395 23.4703 0.383395C25.2139 0.383395 26.3234 1.23933 27.0842 3.0463C27.75 1.23933 29.3033 0.383395 30.9518 0.383395C32.1247 0.383395 33.3928 0.858913 34.1853 1.96846C35.073 3.1731 34.8828 4.91667 34.8828 6.47003V15.5366C34.8828 15.8219 34.6291 16.0438 34.3438 16.0438H31.5858C31.3005 16.0121 31.0786 15.7902 31.0786 15.5366L31.0786 7.92828C31.0786 7.32596 31.142 5.8043 31.0152 5.23368C30.7933 4.28264 30.191 3.99733 29.3667 3.99733C28.701 3.99733 27.9719 4.44115 27.6866 5.17028C27.4013 5.89941 27.433 7.10405 27.433 7.92828L27.433 15.5366C27.433 15.8219 27.1794 16.0438 26.894 16.0438H24.1043C23.819 16.0121 23.5971 15.7902 23.5971 15.5366L23.5971 7.92828C23.5971 6.34322 23.8507 3.96563 21.8852 3.96563C19.8881 3.96563 19.9515 6.24812 19.9515 7.92828L19.9515 15.5366C19.9198 15.7902 19.6979 16.0121 19.3808 16.0121ZM71.0539 0.383395C75.2067 0.383395 77.4575 3.93393 77.4575 8.46721C77.4575 12.842 74.9848 16.3291 71.0539 16.3291C66.9961 16.3291 64.777 12.7786 64.777 8.3404C64.7453 3.87053 66.9961 0.383395 71.0539 0.383395ZM71.0539 3.33161C68.9933 3.33161 68.8665 6.15302 68.8665 7.89659C68.8665 9.64016 68.8348 13.3809 71.0222 13.3809C73.1778 13.3809 73.3046 10.3693 73.3046 8.53061C73.3046 7.32597 73.2412 5.86771 72.8925 4.72647C72.5755 3.71203 71.9415 3.33161 71.0539 3.33161ZM82.815 16.0121L80.0253 16.0121C79.74 15.9804 79.5181 15.7585 79.5181 15.5049V1.14422C79.5498 0.890612 79.7717 0.668704 80.057 0.668704L82.6565 0.668704C82.9101 0.668704 83.1003 0.858917 83.1637 1.08083V3.26821H83.2271C84.0197 1.30273 85.0975 0.383395 87.0313 0.383395C88.2676 0.383395 89.504 0.827208 90.2965 2.06356C91.0256 3.2048 91.0256 5.13858 91.0256 6.53343V15.5683C90.9939 15.8219 90.772 16.0121 90.4867 16.0121H87.697C87.4434 15.9804 87.2215 15.7902 87.1898 15.5683V7.76978C87.1898 6.18472 87.38 3.90223 85.4462 3.90223C84.7805 3.90223 84.1465 4.34605 83.8295 5.04348C83.449 5.93111 83.3856 6.78704 83.3856 7.76978V15.5049C83.3539 15.7902 83.1003 16.0121 82.815 16.0121ZM45.5661 9.16464C45.5661 10.2425 45.5978 11.1618 45.0588 12.1446C44.615 12.9371 43.9176 13.4126 43.1251 13.4126C42.0472 13.4126 41.4132 12.5884 41.4132 11.3837C41.4132 9.00613 43.5372 8.56231 45.5661 8.56231V9.16464ZM48.3875 15.9804C48.1973 16.1389 47.9437 16.1706 47.7217 16.0438C46.8024 15.283 46.6122 14.9026 46.105 14.1734C44.5833 15.7268 43.4738 16.2023 41.5083 16.2023C39.1624 16.2023 37.3237 14.7441 37.3237 11.8592C37.3237 9.57675 38.5601 8.05509 40.3037 7.29426C41.8253 6.62853 43.9493 6.50174 45.5661 6.31153V5.96281C45.5661 5.29709 45.6295 4.50456 45.2174 3.93394C44.8686 3.42672 44.2346 3.2048 43.664 3.2048C42.5862 3.2048 41.6351 3.74373 41.4132 4.88497C41.3498 5.13858 41.1913 5.39218 40.9377 5.39218L38.2431 5.10688C38.0212 5.04347 37.7676 4.88497 37.831 4.53626C38.465 1.23933 41.4132 0.256592 44.0761 0.256592C45.4393 0.256592 47.2145 0.605303 48.2924 1.65144C49.6555 2.91949 49.5287 4.63136 49.5287 6.47003V10.8131C49.5287 12.1128 50.0676 12.6835 50.5749 13.4126C50.7651 13.6662 50.7968 13.9832 50.5749 14.1417C49.9725 14.6172 48.9581 15.5049 48.3875 15.9804ZM8.95115 9.16464C8.95115 10.2425 8.98285 11.1618 8.44393 12.1446C8.00011 12.9371 7.30268 13.4126 6.51015 13.4126C5.43231 13.4126 4.79828 12.5884 4.79828 11.3837C4.79828 9.00613 6.92227 8.56231 8.95115 8.56231V9.16464ZM11.7409 15.9804C11.5506 16.1389 11.297 16.1706 11.0751 16.0438C10.1558 15.283 9.96558 14.9026 9.45836 14.1734C7.93671 15.7268 6.82716 16.2023 4.86169 16.2023C2.51579 16.2023 0.677124 14.7441 0.677124 11.8592C0.677124 9.57675 1.91347 8.05509 3.65704 7.29426C5.1787 6.62853 7.30268 6.50174 8.91944 6.31153V5.96281C8.91944 5.29709 8.98284 4.50456 8.57073 3.93394C8.22201 3.42672 7.58799 3.2048 7.01737 3.2048C5.93953 3.2048 4.98849 3.74373 4.76658 4.88497C4.70318 5.13858 4.54467 5.39218 4.29106 5.39218L1.59646 5.10688C1.37455 5.04347 1.12094 4.88497 1.18435 4.53626C1.81837 1.23933 4.76658 0.256592 7.42949 0.256592C8.79264 0.256592 10.5679 0.605303 11.6458 1.65144C13.0089 2.91949 12.8821 4.63136 12.8821 6.47003L12.8821 10.8131C12.8821 12.1128 13.421 12.6835 13.9282 13.4126C14.1184 13.6662 14.1501 13.9832 13.9282 14.1417C13.3259 14.6172 12.3115 15.5049 11.7409 15.9804Z" fill="#F4F4F4"/>
</svg>
